<?xml version="1.0" encoding="utf-8"?>
<!-- Generator: Adobe Illustrator 19.0.0, SVG Export Plug-In . SVG Version: 6.00 Build 0)  -->
<svg version="1.1" id="Layer_1" xmlns="http://www.w3.org/2000/svg" xmlns:xlink="http://www.w3.org/1999/xlink" x="0px" y="0px"
	 viewBox="0 0 255.5 30" style="enable-background:new 0 0 255.5 30;" xml:space="preserve">
<style type="text/css">
	.st0{clip-path:url(#SVGID_2_);fill:#005285;}
	.st1{fill:#005285;}
	.st2{clip-path:url(#SVGID_4_);fill:#005285;}
	.st3{clip-path:url(#SVGID_6_);fill:#005285;}
</style>
<g>
	<defs>
		<rect id="SVGID_1_" width="255.5" height="30"/>
	</defs>
	<clipPath id="SVGID_2_">
		<use xlink:href="#SVGID_1_"  style="overflow:visible;"/>
	</clipPath>
	<path class="st0" d="M29.2,0h-4.7h-6.6h-0.2H11H6.3C3.7,0,1.4,1.5,0.5,3.8c-1,2.4-0.4,5.1,1.5,7L7.2,16v0c6.8,6.8,13,13,13.1,13.1
		c1.1,1.1,2.9,1.1,4,0c1.1-1.1,1.1-2.9,0-4c0,0-0.4-0.4-1.1-1.1c-0.2-0.2-0.3-0.4-0.5-0.6L6,6.9C5.8,6.7,5.5,6.3,5.6,6
		c0.1-0.1,0.2-0.4,0.7-0.4h11.3h0.2h11.3c0.5,0,0.6,0.2,0.7,0.4c0.1,0.4-0.1,0.7-0.3,0.9l0,0l0,0c-6.1,6.1-8.3,8.3-8.4,8.4
		c-1.1,1.1-1.1,2.9,0,4c1.1,1.1,2.9,1.1,4,0c0.1-0.1,1.7-1.7,8.4-8.4c1.9-1.9,2.5-4.6,1.5-7C34.1,1.5,31.8,0,29.2,0"/>
	<path class="st0" d="M69.4,15.3c-0.3,0.4-0.8,0.6-1.3,0.9c-0.5,0.2-1.1,0.4-1.7,0.4c-1,0-1.9-0.4-2.5-1.1c-0.7-0.8-1-1.9-1-3.4
		c0-0.8,0.1-1.4,0.3-2c0.2-0.5,0.5-1,0.8-1.3c0.3-0.4,0.7-0.6,1.2-0.8c0.4-0.2,0.9-0.2,1.4-0.2c0.6,0,1.2,0.2,1.6,0.5
		c0.5,0.3,0.9,0.7,1.2,1.1V15.3z M69.4,5.5v1.1C69,6.3,68.5,6,68,5.8c-0.7-0.2-1.4-0.4-1.9-0.4c-1,0-1.8,0.2-2.6,0.5
		c-0.8,0.3-1.4,0.8-1.9,1.4c-0.5,0.6-0.9,1.3-1.2,2.1C60.1,10.2,60,11.1,60,12c0,1,0.1,1.9,0.4,2.7c0.3,0.8,0.7,1.5,1.2,2.1
		c0.5,0.6,1.1,1,1.9,1.3c0.7,0.3,1.6,0.5,2.5,0.5c0.7,0,1.3-0.1,1.9-0.3c0.6-0.2,1.1-0.5,1.5-0.9v1.1V24h1.9l1-1v-4.4V5.5v0l-0.1,0
		H69.4z"/>
	<path class="st0" d="M83.8,14.8c-0.4,0.5-0.9,0.9-1.5,1.2c-0.6,0.3-1.2,0.4-1.9,0.4c-0.7,0-1.2-0.2-1.7-0.6
		c-0.5-0.4-0.7-1.1-0.7-2.1V5.5h-2.9v8.6c0,1.5,0.4,2.7,1.2,3.4s1.9,1.1,3.3,1.1c1,0,1.9-0.2,2.6-0.6c0.6-0.3,1.1-0.7,1.6-1.1v1.6
		h0.7h1.2l1-1V5.5h-2.9V14.8z"/>
	<path class="st0" d="M91.1,1.1c-0.5,0-0.9,0.2-1.2,0.5c-0.3,0.3-0.4,0.7-0.4,1.2c0,0.5,0.1,0.8,0.4,1.2c0.3,0.3,0.7,0.5,1.2,0.5
		c0.5,0,0.9-0.1,1.2-0.4c0.3-0.3,0.5-0.7,0.5-1.2c0-0.5-0.2-0.8-0.5-1.2C92,1.3,91.6,1.1,91.1,1.1"/>
</g>
<polygon class="st1" points="89.6,18.6 91.5,18.6 92.5,17.7 92.5,5.5 89.6,5.5 "/>
<g>
	<defs>
		<rect id="SVGID_3_" width="255.5" height="30"/>
	</defs>
	<clipPath id="SVGID_4_">
		<use xlink:href="#SVGID_3_"  style="overflow:visible;"/>
	</clipPath>
	<path class="st2" d="M110.9,5.5c-0.9,0-1.8,0.2-2.5,0.6c-0.8,0.4-1.5,0.9-2.1,1.5c-0.3-0.7-0.8-1.2-1.4-1.5
		c-0.6-0.4-1.4-0.6-2.3-0.6c-0.9,0-1.8,0.2-2.5,0.5c-0.6,0.3-1.2,0.7-1.7,1.2V5.5h-0.6h-2.2v13.1v0h1.9l1-1V9.5
		c1-1.2,2.1-1.8,3.3-1.8c0.8,0,1.3,0.2,1.7,0.6c0.3,0.4,0.5,1,0.5,1.8v8.4h1.9l1-1V10V9.5c1-1.1,2.1-1.7,3.3-1.7
		c0.8,0,1.3,0.2,1.7,0.6c0.3,0.4,0.5,1,0.5,1.8v8.4h1.9l1-1V9.7c0-1.4-0.3-2.4-1-3.1C113.3,5.9,112.3,5.5,110.9,5.5"/>
	<path class="st2" d="M148.4,15c-0.4,0.5-0.9,0.9-1.4,1.2c-0.6,0.3-1.1,0.4-1.7,0.4c-0.3,0-0.6,0-0.8-0.1c-0.3-0.1-0.5-0.2-0.7-0.3
		c-0.2-0.2-0.4-0.3-0.5-0.6c-0.1-0.2-0.2-0.5-0.2-0.9c0-0.6,0.3-1.1,0.8-1.5c0.5-0.4,1.5-0.6,2.8-0.6h1.8V15z M149.8,6.5
		c-0.4-0.4-1-0.6-1.6-0.8c-0.6-0.2-1.3-0.2-2-0.2c-1,0-1.8,0.1-2.6,0.4c-0.8,0.2-1.6,0.6-2.5,1l1.1,1.9c0.8-0.4,1.5-0.6,2.1-0.8
		c0.6-0.1,1.1-0.2,1.6-0.2c0.8,0,1.4,0.1,1.8,0.4c0.4,0.3,0.7,0.8,0.7,1.5v0.9h-2.2c-0.9,0-1.7,0.1-2.4,0.3
		c-0.7,0.2-1.4,0.4-1.9,0.8c-0.5,0.4-1,0.8-1.2,1.3c-0.3,0.5-0.4,1.2-0.4,1.9c0,1.2,0.4,2.1,1.2,2.8c0.8,0.7,1.9,1.1,3.2,1.1
		c0.8,0,1.6-0.1,2.3-0.4c0.6-0.2,1.2-0.6,1.6-1.1v1.4h0.6l0,0h1.3l1-1v-7.1v-0.3c0-0.9-0.1-1.6-0.4-2.2
		C150.6,7.4,150.3,6.9,149.8,6.5"/>
</g>
<polygon class="st1" points="154,18.6 155.9,18.6 156.9,17.7 156.9,1.1 154,1.1 "/>
<g>
	<defs>
		<rect id="SVGID_5_" width="255.5" height="30"/>
	</defs>
	<clipPath id="SVGID_6_">
		<use xlink:href="#SVGID_5_"  style="overflow:visible;"/>
	</clipPath>
	<path class="st3" d="M57,7c-0.5-0.5-1.1-0.8-1.8-1.1c-0.7-0.3-1.5-0.4-2.3-0.4c-1,0-1.9,0.2-2.7,0.5c-0.8,0.3-1.5,0.8-2.1,1.3
		c-0.6,0.6-1,1.3-1.3,2.1c-0.3,0.8-0.5,1.7-0.5,2.7c0,1.1,0.2,2.1,0.6,3c0.4,0.8,0.9,1.5,1.5,2c0.6,0.5,1.4,0.9,2.2,1.2
		c0.9,0.3,1.8,0.4,2.7,0.4c0.9,0,1.7-0.1,2.4-0.2c0.7-0.2,1.4-0.4,1.9-0.6l-0.6-2.1c-0.6,0.3-1.1,0.5-1.7,0.6
		c-0.6,0.1-1.2,0.2-1.9,0.2c-1.3,0-2.3-0.3-3.1-1c-0.8-0.7-1.2-1.7-1.2-3v-0.1l0.1-2l0,0h0c0.1-0.9,0.5-1.5,1.1-2
		c0.6-0.5,1.3-0.8,2.3-0.8c0.5,0,0.9,0.1,1.3,0.2c0.4,0.2,0.7,0.4,0.9,0.6c0.2,0.3,0.4,0.5,0.5,0.9c0.1,0.3,0.2,0.7,0.2,1.1h-4.5
		l-1.8,2h8.2l1-1V11c0-0.8-0.1-1.6-0.4-2.3C57.9,8,57.5,7.5,57,7"/>
	<path class="st3" d="M127.8,7c-0.5-0.5-1.1-0.8-1.8-1.1c-0.7-0.3-1.5-0.4-2.3-0.4c-1,0-1.9,0.2-2.7,0.5c-0.8,0.3-1.5,0.8-2.1,1.3
		c-0.6,0.6-1,1.3-1.3,2.1c-0.3,0.8-0.5,1.7-0.5,2.7c0,1.1,0.2,2.1,0.6,3c0.4,0.8,0.9,1.5,1.5,2c0.6,0.5,1.4,0.9,2.2,1.2
		c0.9,0.3,1.8,0.4,2.7,0.4c0.9,0,1.7-0.1,2.4-0.2c0.7-0.2,1.4-0.4,1.9-0.6l-0.6-2.1c-0.6,0.3-1.1,0.5-1.7,0.6
		c-0.6,0.1-1.2,0.2-1.9,0.2c-1.3,0-2.3-0.3-3.1-1c-0.8-0.7-1.2-1.7-1.2-3v-0.1l0.1-2l0,0h0c0.1-0.9,0.5-1.5,1.1-2
		c0.6-0.5,1.3-0.8,2.3-0.8c0.5,0,0.9,0.1,1.3,0.2c0.4,0.2,0.7,0.4,0.9,0.6c0.2,0.3,0.4,0.5,0.5,0.9c0.1,0.3,0.2,0.7,0.2,1.1h-4.5
		l-1.8,2h8.2l1-1V11c0-0.8-0.1-1.6-0.4-2.3C128.6,8,128.3,7.5,127.8,7"/>
	<path class="st3" d="M138.4,16c-0.2,0.1-0.5,0.1-0.8,0.2c-0.4,0.1-0.8,0.1-1.2,0.1c-0.5,0-0.9-0.1-1.2-0.3
		c-0.3-0.2-0.5-0.7-0.5-1.3V7.6h3.7V5.5h-3.7V1.1H132v4.4v2.1v7.5c0,1.1,0.3,2,0.9,2.6c0.6,0.6,1.6,0.9,3,0.9c0.6,0,1.3-0.1,1.8-0.2
		c0.6-0.1,1.1-0.3,1.4-0.4l0-0.2C138.8,17.3,138.6,16.7,138.4,16"/>
	<path class="st3" d="M198.5,14.6c-0.2,0.7-0.5,1.3-0.9,1.7c-0.4,0.4-0.9,0.7-1.4,0.9c-0.5,0.2-1,0.3-1.6,0.3
		c-0.6,0-1.1-0.1-1.6-0.3c-0.5-0.2-1-0.5-1.4-0.9c-0.4-0.4-0.7-1-1-1.7c-0.3-0.7-0.4-1.5-0.4-2.5c0-0.9,0.1-1.7,0.4-2.4
		c0.2-0.7,0.6-1.2,1-1.7c0.4-0.4,0.9-0.8,1.4-1c0.5-0.2,1.1-0.3,1.6-0.3c0.6,0,1.1,0.1,1.6,0.3c0.5,0.2,1,0.5,1.4,1
		c0.4,0.4,0.7,1,1,1.7c0.2,0.7,0.4,1.5,0.4,2.4C198.8,13.1,198.7,13.9,198.5,14.6 M198.7,7.2c-0.5-0.5-1.1-0.9-1.8-1.2
		c-0.7-0.3-1.5-0.4-2.3-0.4c-0.8,0-1.6,0.1-2.3,0.4c-0.7,0.3-1.4,0.7-1.9,1.3c-0.5,0.6-1,1.3-1.3,2.1c-0.3,0.8-0.5,1.8-0.5,2.8
		c0,1,0.1,2,0.4,2.8c0.3,0.8,0.7,1.5,1.2,2c0.5,0.5,1.1,1,1.8,1.2c0.7,0.3,1.5,0.4,2.3,0.4c0.8,0,1.6-0.1,2.3-0.4
		c0.7-0.3,1.3-0.7,1.8-1.3c0.5-0.6,0.9-1.3,1.2-2.1c0.3-0.8,0.4-1.8,0.4-2.9c0-1-0.1-2-0.4-2.8C199.6,8.4,199.2,7.7,198.7,7.2"/>
	<path class="st3" d="M220.8,5.5c-0.9,0-1.8,0.2-2.5,0.6c-0.7,0.3-1.3,0.8-1.9,1.3V5.6H216H215v10.1v3h1.4v-3h0V8.7
		c0.5-0.6,1.2-1.1,1.8-1.5c0.7-0.4,1.4-0.5,2.1-0.5c0.6,0,1.1,0.1,1.5,0.3c0.4,0.2,0.8,0.4,1,0.7c0.3,0.3,0.4,0.7,0.5,1.1
		c0.1,0.4,0.2,0.9,0.2,1.3v8.5h1.4V9.7c0-1.3-0.4-2.3-1.1-3.1C223.2,5.9,222.1,5.5,220.8,5.5"/>
	<path class="st3" d="M248,14.6c-0.2,0.7-0.5,1.3-0.9,1.7c-0.4,0.4-0.9,0.7-1.4,0.9c-0.5,0.2-1,0.3-1.6,0.3c-0.6,0-1.1-0.1-1.6-0.3
		c-0.5-0.2-1-0.5-1.4-0.9c-0.4-0.4-0.7-1-1-1.7c-0.2-0.7-0.4-1.5-0.4-2.5c0-0.9,0.1-1.7,0.4-2.4c0.2-0.7,0.6-1.2,1-1.7
		c0.4-0.4,0.9-0.8,1.4-1c0.5-0.2,1.1-0.3,1.6-0.3c0.6,0,1.1,0.1,1.6,0.3c0.5,0.2,1,0.5,1.4,1c0.4,0.4,0.7,1,1,1.7
		c0.2,0.7,0.4,1.5,0.4,2.4C248.4,13.1,248.3,13.9,248,14.6 M248.2,7.2c-0.5-0.5-1.1-0.9-1.8-1.2c-0.7-0.3-1.5-0.4-2.3-0.4
		s-1.6,0.1-2.3,0.4c-0.7,0.3-1.4,0.7-1.9,1.3c-0.5,0.6-1,1.3-1.3,2.1c-0.3,0.8-0.5,1.8-0.5,2.8c0,1,0.1,2,0.4,2.8
		c0.3,0.8,0.7,1.5,1.2,2c0.5,0.5,1.1,1,1.8,1.2c0.7,0.3,1.5,0.4,2.3,0.4c0.8,0,1.6-0.1,2.3-0.4c0.7-0.3,1.3-0.7,1.8-1.3
		c0.5-0.6,0.9-1.3,1.2-2.1c0.3-0.8,0.4-1.8,0.4-2.9c0-1-0.1-2-0.4-2.8C249.2,8.4,248.8,7.7,248.2,7.2"/>
	<path class="st3" d="M254,6.9c0,0-0.2,0-0.3,0V6.3h0.1h0.2c0.3,0,0.4,0.1,0.4,0.3v0C254.4,6.8,254.3,6.9,254,6.9 M254.3,7.1
		c0.2-0.1,0.4-0.2,0.4-0.5v0c0-0.4-0.3-0.6-0.7-0.6c-0.1,0-0.3,0-0.4,0c-0.1,0-0.1,0-0.1,0.1v1.7c0,0,0,0.1,0.1,0.1h0.1
		c0,0,0.1,0,0.1-0.1V7.1h0.2l0.1,0l0.4,0.7c0,0,0,0,0.1,0h0.2c0.1,0,0.1,0,0.1-0.1c0,0,0,0,0-0.1L254.3,7.1z"/>
	<path class="st3" d="M254.1,8.2c-0.7,0-1.2-0.6-1.2-1.3c0-0.7,0.6-1.3,1.2-1.3c0.7,0,1.3,0.6,1.3,1.3
		C255.3,7.7,254.8,8.2,254.1,8.2 M254.1,5.5c-0.8,0-1.5,0.7-1.5,1.5c0,0.8,0.7,1.5,1.5,1.5c0.8,0,1.5-0.7,1.5-1.5
		C255.5,6.2,254.9,5.5,254.1,5.5"/>
	<path class="st3" d="M211.4,7c-0.4-0.5-1-0.8-1.6-1.1c-0.6-0.3-1.3-0.4-2-0.4c-0.9,0-1.7,0.2-2.4,0.5c-0.7,0.3-1.3,0.7-1.8,1.3
		c-0.5,0.6-0.9,1.3-1.2,2.1c-0.3,0.8-0.4,1.7-0.4,2.7c0,1.2,0.2,2.1,0.5,3c0.3,0.8,0.8,1.5,1.4,2c0.6,0.5,1.2,0.9,2,1.2
		c0.8,0.3,1.6,0.4,2.5,0.4c0.7,0,1.4-0.1,2.1-0.2c0.7-0.1,1.3-0.3,1.7-0.5l-0.3-1.1c-1.1,0.4-2.2,0.6-3.4,0.6
		c-1.5,0-2.7-0.5-3.6-1.4c-0.9-0.9-1.3-2.2-1.3-3.8v-0.4l0.1-1.2c0.1-1.3,0.6-2.3,1.3-3c0.8-0.7,1.7-1.1,2.8-1.1
		c0.6,0,1.2,0.1,1.7,0.3c0.5,0.2,0.8,0.5,1.1,0.9c0.3,0.4,0.5,0.8,0.6,1.3c0.1,0.5,0.2,1,0.2,1.5h-6.6l-1.2,1.2h9.3v-1
		c0-0.8-0.1-1.6-0.4-2.2C212.1,8.1,211.8,7.5,211.4,7"/>
	<path class="st3" d="M230.3,8.1c0.4-0.5,1-0.8,1.6-1.1c0.6-0.3,1.3-0.4,2.1-0.4c0.5,0,0.9,0,1.4,0.1c0.3,0.1,0.7,0.2,1.1,0.4
		c0.2-0.4,0.4-0.7,0.6-1c-0.6-0.3-1.2-0.5-1.7-0.5c-0.5-0.1-1.1-0.1-1.7-0.1c-0.9,0-1.8,0.2-2.5,0.4c-0.8,0.3-1.4,0.7-2,1.3
		c-0.6,0.6-1,1.3-1.3,2.1c-0.3,0.8-0.5,1.7-0.5,2.7c0,1.1,0.2,2.1,0.5,2.9c0.3,0.8,0.8,1.5,1.4,2c0.6,0.5,1.3,0.9,2,1.2
		c0.8,0.3,1.6,0.4,2.5,0.4c0.7,0,1.3-0.1,1.9-0.2c0.5-0.1,0.9-0.3,1.4-0.5c-0.2-0.3-0.4-0.6-0.6-0.9c-0.3,0.1-0.6,0.2-0.9,0.3
		c-0.5,0.1-1,0.2-1.6,0.2c-0.6,0-1.2-0.1-1.8-0.3c-0.6-0.2-1.1-0.5-1.6-0.9c-0.5-0.4-0.9-1-1.2-1.7c-0.3-0.7-0.4-1.6-0.4-2.7
		c0-0.8,0.1-1.5,0.4-2.2C229.5,9.2,229.9,8.6,230.3,8.1"/>
	<path class="st3" d="M182.3,5.5c-0.9,0-1.8,0.2-2.6,0.6c-0.8,0.4-1.5,0.9-2.1,1.6c-0.3-0.7-0.7-1.2-1.3-1.6
		c-0.6-0.4-1.4-0.6-2.3-0.6c-1,0-1.8,0.2-2.5,0.5c-0.6,0.3-1.2,0.8-1.8,1.3V5.6h-0.4h-1v10.1v3h1.4v-3h0V8.7
		c0.5-0.6,1.1-1.1,1.7-1.5c0.7-0.4,1.3-0.5,2-0.5c1.2,0,2,0.3,2.5,0.9c0.4,0.6,0.7,1.5,0.7,2.5v8.4h1.4V9.7V9.2c0-0.2,0-0.4,0-0.5
		c0.5-0.6,1-1.1,1.7-1.4c0.7-0.3,1.3-0.5,2-0.5c1.2,0,2.1,0.3,2.5,0.9c0.5,0.6,0.7,1.5,0.7,2.5v8.4h1.4V9.7c0-1.3-0.3-2.3-1-3.1
		C184.6,5.9,183.6,5.5,182.3,5.5"/>
</g>
</svg>
